<svg width="31" height="30" viewBox="0 0 31 30" fill="none" xmlns="http://www.w3.org/2000/svg">
<path d="M26.3033 21.4312C25.8874 22.3919 25.3951 23.2763 24.8248 24.0894C24.0473 25.1979 23.4108 25.9651 22.9202 26.3912C22.1597 27.0906 21.345 27.4487 20.4725 27.4691C19.8461 27.4691 19.0907 27.2909 18.2114 26.9293C17.3292 26.5694 16.5185 26.3912 15.7772 26.3912C14.9998 26.3912 14.166 26.5694 13.2741 26.9293C12.3809 27.2909 11.6614 27.4793 11.1112 27.4979C10.2745 27.5336 9.44055 27.1652 8.60811 26.3912C8.0768 25.9278 7.41224 25.1334 6.61612 24.0079C5.76195 22.8061 5.05971 21.4125 4.50955 19.8236C3.92036 18.1075 3.625 16.4457 3.625 14.8368C3.625 12.9938 4.02323 11.4043 4.82087 10.0723C5.44775 9.00238 6.28172 8.15839 7.3255 7.53881C8.36928 6.91923 9.49708 6.6035 10.7116 6.5833C11.3762 6.5833 12.2477 6.78887 13.3307 7.19287C14.4106 7.59823 15.104 7.80379 15.408 7.80379C15.6353 7.80379 16.4056 7.56343 17.7115 7.08423C18.9464 6.63983 19.9887 6.45582 20.8425 6.52831C23.1562 6.71503 24.8944 7.62708 26.0504 9.27024C23.9811 10.524 22.9576 12.28 22.9779 14.5328C22.9966 16.2875 23.6332 17.7476 24.8842 18.907C25.4511 19.4451 26.0843 19.861 26.7888 20.1563C26.636 20.5994 26.4747 21.0238 26.3033 21.4312ZM20.997 0.550462C20.997 1.92578 20.4945 3.2099 19.493 4.39848C18.2844 5.81146 16.8225 6.62795 15.2373 6.49911C15.2171 6.33411 15.2054 6.16046 15.2054 5.97798C15.2054 4.65768 15.7801 3.2447 16.8008 2.0894C17.3104 1.50444 17.9585 1.01807 18.7444 0.630073C19.5287 0.247868 20.2705 0.0365009 20.9681 0.000305176C20.9885 0.184163 20.997 0.368033 20.997 0.550444V0.550462Z" fill="#030303"/>
</svg>
