<svg width="31" height="30" viewBox="0 0 31 30" fill="none" xmlns="http://www.w3.org/2000/svg">
<g clip-path="url(#clip0_1_65)">
<path d="M30.25 15C30.25 6.71572 23.5343 0 15.25 0C6.96572 0 0.25 6.71572 0.25 15C0.25 22.4868 5.73525 28.6925 12.9062 29.8178V19.3359H9.09766V15H12.9062V11.6953C12.9062 7.93594 15.1457 5.85938 18.572 5.85938C20.2126 5.85938 21.9297 6.15234 21.9297 6.15234V9.84375H20.0383C18.175 9.84375 17.5938 11.0001 17.5938 12.1875V15H21.7539L21.0889 19.3359H17.5938V29.8178C24.7647 28.6925 30.25 22.4868 30.25 15Z" fill="#1877F2"/>
<path d="M21.0889 19.3359L21.7539 15H17.5938V12.1875C17.5938 11.0013 18.175 9.84375 20.0383 9.84375H21.9297V6.15234C21.9297 6.15234 20.2132 5.85938 18.572 5.85938C15.1457 5.85938 12.9062 7.93594 12.9062 11.6953V15H9.09766V19.3359H12.9062V29.8178C14.4593 30.0607 16.0407 30.0607 17.5938 29.8178V19.3359H21.0889Z" fill="#FCFCFC"/>
</g>
<defs>
<clipPath id="clip0_1_65">
<rect width="30" height="30" fill="white" transform="translate(0.25)"/>
</clipPath>
</defs>
</svg>
