<svg width="31" height="30" viewBox="0 0 31 30" fill="none" xmlns="http://www.w3.org/2000/svg">
<g clip-path="url(#clip0_1_59)">
<path d="M29.9576 15.3456C29.9576 14.3259 29.8749 13.3007 29.6985 12.2976H15.55V18.0738H23.6522C23.316 19.9368 22.2357 21.5848 20.6539 22.632V26.3799H25.4876C28.3261 23.7674 29.9576 19.9092 29.9576 15.3456Z" fill="#4285F4"/>
<path d="M15.55 30.001C19.5956 30.001 23.0073 28.6727 25.4931 26.3799L20.6593 22.6319C19.3145 23.5469 17.5783 24.065 15.5555 24.065C11.6422 24.065 8.32421 21.4249 7.13369 17.8754H2.14563V21.739C4.69202 26.8043 9.8785 30.001 15.55 30.001Z" fill="#34A853"/>
<path d="M7.12822 17.8753C6.49989 16.0124 6.49989 13.9951 7.12822 12.1322V8.26849H2.14568C0.018173 12.507 0.018173 17.5005 2.14568 21.739L7.12822 17.8753Z" fill="#FBBC04"/>
<path d="M15.55 5.93708C17.6885 5.90401 19.7554 6.70871 21.3042 8.18583L25.5867 3.90327C22.875 1.35688 19.2759 -0.0430825 15.55 0.00101083C9.8785 0.00101083 4.69202 3.19778 2.14563 8.26851L7.12818 12.1322C8.31318 8.57716 11.6367 5.93708 15.55 5.93708Z" fill="#EA4335"/>
</g>
<defs>
<clipPath id="clip0_1_59">
<rect width="30" height="30" fill="white" transform="translate(0.25)"/>
</clipPath>
</defs>
</svg>
