<svg width="24" height="24" viewBox="0 0 24 24" fill="none" xmlns="http://www.w3.org/2000/svg">
<g clip-path="url(#clip0_1_150)">
<path fill-rule="evenodd" clip-rule="evenodd" d="M7.12511 3.555C6.0161 4.1952 5.04404 5.04756 4.26443 6.06342C3.48484 7.07928 2.91296 8.23875 2.58145 9.47563C1.91195 11.9736 2.26219 14.6352 3.55511 16.875C4.84804 19.1148 6.97776 20.7492 9.47575 21.4186C11.9737 22.0881 14.6354 21.738 16.8751 20.445C17.1325 20.3079 17.4331 20.2761 17.7135 20.3563C17.9938 20.4366 18.232 20.6226 18.378 20.8752C18.5239 21.1276 18.5661 21.4269 18.4956 21.7099C18.4251 21.9928 18.2475 22.2375 18.0001 22.392C15.7314 23.7012 13.0965 24.2322 10.4978 23.9038C7.89902 23.5753 5.4791 22.4056 3.60736 20.5732C1.73563 18.7408 0.514881 16.3462 0.131464 13.755C-0.251955 11.1638 0.223013 8.51829 1.48387 6.22228C2.74472 3.92629 4.72222 2.10591 7.11451 1.039C9.5068 -0.0279157 12.1825 -0.282758 14.7332 0.313367C17.2839 0.909493 19.5694 2.32384 21.241 4.34053C22.9126 6.35724 23.8785 8.86551 23.9911 11.4825C23.9971 11.5298 24.0001 11.5774 24.0001 11.625V11.781C24.0012 11.876 24.0012 11.971 24.0001 12.066V13.875C24.0007 14.7685 23.7111 15.6379 23.1748 16.3527C22.6387 17.0674 21.885 17.5888 21.027 17.8383C20.169 18.0879 19.2532 18.052 18.4174 17.7363C17.5816 17.4205 16.8708 16.842 16.3921 16.0875C15.4401 17.1103 14.1609 17.7688 12.7752 17.9494C11.3895 18.1299 9.98429 17.821 8.80196 17.0763C7.61965 16.3314 6.73438 15.1972 6.2989 13.8695C5.86344 12.5417 5.90507 11.1035 6.41664 9.80316C6.92819 8.50278 7.87759 7.42174 9.10102 6.74655C10.3245 6.07137 11.7452 5.84437 13.1181 6.10476C14.491 6.36513 15.73 7.09654 16.6213 8.17278C17.5125 9.24903 18.0003 10.6026 18.0001 12V13.875C18.0001 14.3723 18.1977 14.8492 18.5493 15.2008C18.9009 15.5524 19.3779 15.75 19.8751 15.75C20.3724 15.75 20.8494 15.5524 21.201 15.2008C21.5526 14.8492 21.7501 14.3723 21.7501 13.875V11.8005C21.7156 10.106 21.24 8.44977 20.3701 6.99516C19.5003 5.54055 18.2664 4.3378 16.7899 3.50554C15.3135 2.6733 13.6456 2.24028 11.9507 2.24922C10.2559 2.25814 8.5927 2.70873 7.12511 3.5565V3.555ZM15.7501 12C15.7501 11.0054 15.355 10.0516 14.6518 9.34834C13.9485 8.64508 12.9947 8.25 12.0001 8.25C11.0056 8.25 10.0517 8.64508 9.34846 9.34834C8.6452 10.0516 8.25012 11.0054 8.25012 12C8.25012 12.9946 8.6452 13.9484 9.34846 14.6517C10.0517 15.3549 11.0056 15.75 12.0001 15.75C12.9947 15.75 13.9485 15.3549 14.6518 14.6517C15.355 13.9484 15.7501 12.9946 15.7501 12Z" fill="#3D3D3D"/>
</g>
<defs>
<clipPath id="clip0_1_150">
<rect width="24" height="24" fill="white"/>
</clipPath>
</defs>
</svg>
