<svg width="24" height="24" viewBox="0 0 24 24" fill="none" xmlns="http://www.w3.org/2000/svg">
<g clip-path="url(#clip0_1_151)">
<path fill-rule="evenodd" clip-rule="evenodd" d="M2.38746 4.06868L3.57118 10.8751H10.875C11.4963 10.8751 12 11.3787 12 12.0001C12 12.6214 11.4963 13.1251 10.875 13.1251H3.57118L2.38746 19.9314L20.894 12.0001L2.38746 4.06868ZM1.48306 12.0001L0.0954511 4.02131C-0.0167257 3.37629 0.191987 2.71703 0.65493 2.25408C1.23661 1.67241 2.11383 1.50347 2.86993 1.82751L22.9735 10.4433C23.5961 10.7102 23.9999 11.3225 23.9999 12.0001C23.9999 12.6776 23.5961 13.2899 22.9735 13.5568L2.86993 22.1726C2.11383 22.4967 1.23661 22.3277 0.65493 21.7461C0.191987 21.2831 -0.0167261 20.6238 0.0954511 19.9788L1.48306 12.0001Z" fill="#8E8E93"/>
</g>
<defs>
<clipPath id="clip0_1_151">
<rect width="24" height="24" fill="white"/>
</clipPath>
</defs>
</svg>
