<svg width="24" height="24" viewBox="0 0 24 24" fill="none" xmlns="http://www.w3.org/2000/svg">
<g clip-path="url(#clip0_1_146)">
<path fill-rule="evenodd" clip-rule="evenodd" d="M2.25 12C2.25 9.41413 3.27723 6.93419 5.10571 5.10571C6.93419 3.27723 9.41413 2.25 12 2.25C14.5859 2.25 17.0658 3.27723 18.8943 5.10571C20.7228 6.93419 21.75 9.41413 21.75 12C21.75 14.5859 20.7228 17.0658 18.8943 18.8943C17.0658 20.7228 14.5859 21.75 12 21.75C9.41413 21.75 6.93419 20.7228 5.10571 18.8943C3.27723 17.0658 2.25 14.5859 2.25 12ZM12 0C8.8174 0 5.76516 1.26428 3.51472 3.51472C1.26428 5.76516 0 8.8174 0 12C0 15.1826 1.26428 18.2349 3.51472 20.4854C5.76516 22.7357 8.8174 24 12 24C15.1826 24 18.2349 22.7357 20.4854 20.4854C22.7357 18.2349 24 15.1826 24 12C24 8.8174 22.7357 5.76516 20.4854 3.51472C18.2349 1.26428 15.1826 0 12 0ZM7.5 12C7.89783 12 8.27936 11.842 8.56067 11.5607C8.84196 11.2794 9 10.8978 9 10.5C9 10.1022 8.84196 9.72064 8.56067 9.43933C8.27936 9.15804 7.89783 9 7.5 9C7.10217 9 6.72064 9.15804 6.43933 9.43933C6.15804 9.72064 6 10.1022 6 10.5C6 10.8978 6.15804 11.2794 6.43933 11.5607C6.72064 11.842 7.10217 12 7.5 12ZM18 10.5C18 10.8978 17.8419 11.2794 17.5606 11.5607C17.2794 11.842 16.8978 12 16.5 12C16.1022 12 15.7206 11.842 15.4394 11.5607C15.1581 11.2794 15 10.8978 15 10.5C15 10.1022 15.1581 9.72064 15.4394 9.43933C15.7206 9.15804 16.1022 9 16.5 9C16.8978 9 17.2794 9.15804 17.5606 9.43933C17.8419 9.72064 18 10.1022 18 10.5ZM7.98 14.454C8.22201 14.2845 8.52096 14.2171 8.81229 14.2662C9.10362 14.3153 9.36393 14.4771 9.537 14.7165L9.5475 14.73C9.70177 14.9069 9.87823 15.0632 10.0725 15.195C10.4685 15.462 11.097 15.75 12 15.75C12.903 15.75 13.53 15.462 13.9275 15.1935C14.1218 15.0616 14.2982 14.9054 14.4525 14.7285L14.463 14.7165C14.6361 14.4734 14.8986 14.3091 15.1927 14.2596C15.4871 14.21 15.789 14.2794 16.032 14.4525C16.275 14.6256 16.4394 14.8881 16.4889 15.1823C16.5384 15.4766 16.4691 15.7785 16.296 16.0215L15.375 15.375C16.296 16.02 16.296 16.0215 16.2945 16.0215V16.023L16.293 16.026L16.29 16.0305L16.2825 16.041L16.2615 16.0695C16.1772 16.1825 16.0849 16.2891 15.9855 16.389C15.7444 16.6386 15.4781 16.8623 15.1905 17.0565C14.2458 17.6841 13.1341 18.0129 12 18C10.581 18 9.522 17.538 8.811 17.055C8.43478 16.8004 8.09514 16.4956 7.8015 16.149C7.78005 16.1229 7.75905 16.0963 7.7385 16.0695L7.7175 16.0395L7.71 16.0305L7.707 16.026V16.023H7.7055L8.625 15.375L7.704 16.02C7.53294 15.7758 7.46577 15.4739 7.51723 15.1802C7.56871 14.8866 7.7346 14.6254 7.9785 14.454H7.98Z" fill="#2C2C2E"/>
</g>
<defs>
<clipPath id="clip0_1_146">
<rect width="24" height="24" fill="white"/>
</clipPath>
</defs>
</svg>
